<svg width="8" height="12" viewBox="0 0 8 12" fill="none" xmlns="http://www.w3.org/2000/svg">
<path d="M1.23714 0.31571C1.13752 0.415135 1.05847 0.533234 1.00454 0.663246C0.950612 0.793257 0.922852 0.932628 0.922852 1.07338C0.922852 1.21414 0.950612 1.35351 1.00454 1.48352C1.05847 1.61353 1.13752 1.73163 1.23714 1.83105L5.40703 6.00094L1.23714 10.1708C1.0362 10.3718 0.923307 10.6443 0.923307 10.9285C0.923307 11.2127 1.0362 11.4852 1.23714 11.6862C1.43809 11.8871 1.71063 12 1.99482 12C2.279 12 2.55154 11.8871 2.75249 11.6862L7.68542 6.75323C7.78505 6.65381 7.86409 6.53571 7.91802 6.4057C7.97195 6.27569 7.99971 6.13632 7.99971 5.99556C7.99971 5.85481 7.97195 5.71544 7.91802 5.58543C7.86409 5.45542 7.78505 5.33732 7.68542 5.23789L2.75249 0.304963C2.3441 -0.103428 1.65628 -0.103428 1.23714 0.31571Z" fill="#27643B"/>
</svg>
