<svg width="20" height="20" viewBox="0 0 20 20" fill="none" xmlns="http://www.w3.org/2000/svg">
<g clip-path="url(#clip0_260_1526)">
<path d="M18.6778 9.73889C16.8056 6.27778 13.5222 4.18333 9.8889 4.18333C6.25557 4.18333 2.96668 6.27778 1.11112 9.73889L0.955566 10L1.10001 10.2667C2.97223 13.7278 6.25557 15.8222 9.8889 15.8222C13.5222 15.8222 16.8111 13.7556 18.6778 10.2667L18.8222 10L18.6778 9.73889ZM9.8889 14.6833C6.76112 14.6833 3.8889 12.9389 2.22223 10C3.8889 7.06111 6.76112 5.31667 9.8889 5.31667C13.0167 5.31667 15.8556 7.06667 17.55 10C15.8556 12.9389 13.0111 14.6833 9.8889 14.6833Z" fill="#8C8C8C"/>
<path d="M10.0499 6.20555C9.29663 6.21105 8.56189 6.43965 7.93847 6.86249C7.31505 7.28532 6.83091 7.88342 6.54721 8.58124C6.26352 9.27907 6.19298 10.0453 6.34451 10.7832C6.49604 11.5211 6.86284 12.1975 7.39859 12.7271C7.93433 13.2566 8.615 13.6155 9.3546 13.7584C10.0942 13.9014 10.8596 13.8219 11.554 13.5301C12.2485 13.2383 12.8409 12.7472 13.2565 12.1189C13.672 11.4906 13.8921 10.7533 13.8888 10C13.8866 9.49857 13.7855 9.00251 13.5913 8.54023C13.397 8.07795 13.1135 7.65855 12.7568 7.30606C12.4002 6.95356 11.9775 6.67491 11.513 6.48606C11.0485 6.29722 10.5513 6.20189 10.0499 6.20555ZM10.0499 12.7167C9.51782 12.7112 8.99922 12.5486 8.55924 12.2493C8.11926 11.9501 7.77751 11.5275 7.57692 11.0346C7.37633 10.5418 7.32584 10.0006 7.4318 9.47919C7.53775 8.95774 7.79542 8.47922 8.17244 8.10373C8.54947 7.72824 9.02904 7.47252 9.55092 7.3687C10.0728 7.26488 10.6137 7.31758 11.1058 7.52018C11.5978 7.72278 12.019 8.06625 12.3164 8.50744C12.6139 8.94864 12.7744 9.4679 12.7777 10C12.7792 10.3581 12.7095 10.7129 12.5728 11.0439C12.4361 11.3749 12.2351 11.6755 11.9814 11.9282C11.7276 12.1809 11.4262 12.3807 11.0947 12.5161C10.7631 12.6514 10.408 12.7196 10.0499 12.7167Z" fill="#8C8C8C"/>
</g>
<defs>
<clipPath id="clip0_260_1526">
<rect width="20" height="20" fill="white"/>
</clipPath>
</defs>
</svg>
