<svg width="41" height="40" viewBox="0 0 41 40" fill="none" xmlns="http://www.w3.org/2000/svg">
<path d="M36.8427 16.7358H35.5002V16.6667H20.5002V23.3333H29.9193C28.5452 27.2142 24.8527 30 20.5002 30C14.9777 30 10.5002 25.5225 10.5002 20C10.5002 14.4775 14.9777 10 20.5002 10C23.0493 10 25.3685 10.9617 27.1343 12.5325L31.8485 7.81834C28.8718 5.04418 24.8902 3.33334 20.5002 3.33334C11.296 3.33334 3.8335 10.7958 3.8335 20C3.8335 29.2042 11.296 36.6667 20.5002 36.6667C29.7043 36.6667 37.1668 29.2042 37.1668 20C37.1668 18.8825 37.0518 17.7917 36.8427 16.7358Z" fill="#FFC107"/>
<path d="M5.75488 12.2425L11.2307 16.2583C12.7124 12.59 16.3007 10 20.4999 10C23.0491 10 25.3682 10.9617 27.1341 12.5325L31.8482 7.81834C28.8716 5.04418 24.8899 3.33334 20.4999 3.33334C14.0982 3.33334 8.54655 6.94751 5.75488 12.2425Z" fill="#FF3D00"/>
<path d="M20.5001 36.6667C24.8051 36.6667 28.7168 35.0192 31.6743 32.34L26.5159 27.975C24.7864 29.2903 22.673 30.0017 20.5001 30C16.1651 30 12.4843 27.2358 11.0976 23.3783L5.6626 27.5658C8.42093 32.9633 14.0226 36.6667 20.5001 36.6667Z" fill="#4CAF50"/>
<path d="M36.8425 16.7358H35.5V16.6667H20.5V23.3333H29.9192C29.2618 25.1803 28.0778 26.7943 26.5133 27.9758L26.5158 27.9742L31.6742 32.3392C31.3092 32.6708 37.1667 28.3333 37.1667 20C37.1667 18.8825 37.0517 17.7917 36.8425 16.7358Z" fill="#1976D2"/>
</svg>
