<svg width="40" height="40" viewBox="0 0 40 40" fill="none" xmlns="http://www.w3.org/2000/svg">
<path fill-rule="evenodd" clip-rule="evenodd" d="M5.20801 10.625C5.20801 9.70454 5.9542 8.95834 6.87467 8.95834H33.1247C34.0451 8.95834 34.7913 9.70454 34.7913 10.625C34.7913 11.5455 34.0451 12.2917 33.1247 12.2917H6.87467C5.9542 12.2917 5.20801 11.5455 5.20801 10.625ZM5.20801 20.625C5.20801 19.7045 5.9542 18.9583 6.87467 18.9583H33.1247C34.0451 18.9583 34.7913 19.7045 34.7913 20.625C34.7913 21.5455 34.0451 22.2917 33.1247 22.2917H6.87467C5.9542 22.2917 5.20801 21.5455 5.20801 20.625ZM5.20801 30.625C5.20801 29.7045 5.9542 28.9583 6.87467 28.9583H33.1247C34.0451 28.9583 34.7913 29.7045 34.7913 30.625C34.7913 31.5455 34.0451 32.2917 33.1247 32.2917H6.87467C5.9542 32.2917 5.20801 31.5455 5.20801 30.625Z" fill="white"/>
</svg>
