<svg width="14" height="18" viewBox="0 0 14 18" fill="none" xmlns="http://www.w3.org/2000/svg">
<path fill-rule="evenodd" clip-rule="evenodd" d="M11.1663 0.666664C11.8294 0.666664 12.4653 0.930056 12.9341 1.3989C13.4029 1.86774 13.6663 2.50362 13.6663 3.16666V16.5C13.6662 16.657 13.6218 16.8107 13.5382 16.9435C13.4546 17.0763 13.3351 17.1828 13.1936 17.2507C13.0521 17.3187 12.8943 17.3452 12.7384 17.3274C12.5824 17.3096 12.4347 17.2481 12.3122 17.15L10.7497 15.9L9.18717 17.15C9.0271 17.2782 8.82535 17.3429 8.62055 17.3317C8.41575 17.3205 8.22228 17.2341 8.07717 17.0892L6.99967 16.0117L5.92217 17.0892C5.77718 17.2343 5.58376 17.3208 5.37896 17.3321C5.17416 17.3435 4.97235 17.279 4.81217 17.1508L3.24967 15.9L1.68717 17.15C1.56465 17.2481 1.41691 17.3096 1.26097 17.3274C1.10503 17.3452 0.947231 17.3187 0.805732 17.2507C0.664233 17.1828 0.544792 17.0763 0.46116 16.9435C0.377528 16.8107 0.333106 16.657 0.333008 16.5V3.16666C0.333008 2.50362 0.5964 1.86774 1.06524 1.3989C1.53408 0.930056 2.16997 0.666664 2.83301 0.666664H11.1663ZM6.99967 9H4.49967C4.27866 9 4.0667 9.0878 3.91042 9.24408C3.75414 9.40036 3.66634 9.61232 3.66634 9.83333C3.66634 10.0543 3.75414 10.2663 3.91042 10.4226C4.0667 10.5789 4.27866 10.6667 4.49967 10.6667H6.99967C7.22069 10.6667 7.43265 10.5789 7.58893 10.4226C7.74521 10.2663 7.83301 10.0543 7.83301 9.83333C7.83301 9.61232 7.74521 9.40036 7.58893 9.24408C7.43265 9.0878 7.22069 9 6.99967 9ZM9.49967 5.66666H4.49967C4.28727 5.6669 4.08298 5.74823 3.92853 5.89404C3.77409 6.03985 3.68114 6.23913 3.6687 6.45116C3.65625 6.66319 3.72524 6.87198 3.86156 7.03486C3.99789 7.19774 4.19126 7.30241 4.40217 7.3275L4.49967 7.33333H9.49967C9.71207 7.3331 9.91637 7.25177 10.0708 7.10596C10.2253 6.96015 10.3182 6.76087 10.3307 6.54884C10.3431 6.3368 10.2741 6.12802 10.1378 5.96514C10.0015 5.80226 9.80809 5.69758 9.59717 5.6725L9.49967 5.66666Z" fill="#27643B"/>
</svg>
